<mxfile host="Electron" modified="2023-09-23T11:49:58.311Z" agent="Mozilla/5.0 (Windows NT 10.0; Win64; x64) AppleWebKit/537.36 (KHTML, like Gecko) draw.io/21.7.5 Chrome/114.0.5735.289 Electron/25.8.1 Safari/537.36" etag="ad9GvyqbhuhwGUIkGp6V" version="21.7.5" type="device">
  <diagram name="第 1 页" id="FWOdUvpM1lVPdHfsne7G">
    <mxGraphModel dx="1239" dy="769" grid="1" gridSize="10" guides="1" tooltips="1" connect="1" arrows="1" fold="1" page="1" pageScale="1" pageWidth="827" pageHeight="1169" math="0" shadow="0">
      <root>
        <mxCell id="0" />
        <mxCell id="1" parent="0" />
        <mxCell id="_umKn0ACVoSn4Z4wN4rh-6" value="" style="edgeStyle=orthogonalEdgeStyle;rounded=0;orthogonalLoop=1;jettySize=auto;html=1;exitX=0.5;exitY=1;exitDx=0;exitDy=0;" edge="1" parent="1" source="_umKn0ACVoSn4Z4wN4rh-2" target="_umKn0ACVoSn4Z4wN4rh-5">
          <mxGeometry relative="1" as="geometry">
            <mxPoint x="360" y="70" as="sourcePoint" />
            <Array as="points">
              <mxPoint x="420" y="80" />
              <mxPoint x="80" y="80" />
            </Array>
          </mxGeometry>
        </mxCell>
        <mxCell id="_umKn0ACVoSn4Z4wN4rh-8" value="" style="edgeStyle=orthogonalEdgeStyle;rounded=0;orthogonalLoop=1;jettySize=auto;html=1;" edge="1" parent="1" source="_umKn0ACVoSn4Z4wN4rh-2" target="_umKn0ACVoSn4Z4wN4rh-7">
          <mxGeometry relative="1" as="geometry">
            <Array as="points">
              <mxPoint x="420" y="80" />
              <mxPoint x="240" y="80" />
            </Array>
          </mxGeometry>
        </mxCell>
        <mxCell id="_umKn0ACVoSn4Z4wN4rh-11" value="" style="edgeStyle=orthogonalEdgeStyle;rounded=0;orthogonalLoop=1;jettySize=auto;html=1;" edge="1" parent="1" source="_umKn0ACVoSn4Z4wN4rh-2" target="_umKn0ACVoSn4Z4wN4rh-10">
          <mxGeometry relative="1" as="geometry" />
        </mxCell>
        <mxCell id="_umKn0ACVoSn4Z4wN4rh-13" value="" style="edgeStyle=orthogonalEdgeStyle;rounded=0;orthogonalLoop=1;jettySize=auto;html=1;" edge="1" parent="1" target="_umKn0ACVoSn4Z4wN4rh-12">
          <mxGeometry relative="1" as="geometry">
            <mxPoint x="420" y="70" as="sourcePoint" />
            <Array as="points">
              <mxPoint x="420" y="80" />
              <mxPoint x="560" y="80" />
            </Array>
          </mxGeometry>
        </mxCell>
        <mxCell id="_umKn0ACVoSn4Z4wN4rh-15" value="" style="edgeStyle=orthogonalEdgeStyle;rounded=0;orthogonalLoop=1;jettySize=auto;html=1;" edge="1" parent="1" source="_umKn0ACVoSn4Z4wN4rh-2" target="_umKn0ACVoSn4Z4wN4rh-14">
          <mxGeometry relative="1" as="geometry">
            <Array as="points">
              <mxPoint x="420" y="80" />
              <mxPoint x="720" y="80" />
            </Array>
          </mxGeometry>
        </mxCell>
        <mxCell id="_umKn0ACVoSn4Z4wN4rh-17" value="" style="edgeStyle=orthogonalEdgeStyle;rounded=0;orthogonalLoop=1;jettySize=auto;html=1;" edge="1" parent="1" source="_umKn0ACVoSn4Z4wN4rh-2" target="_umKn0ACVoSn4Z4wN4rh-16">
          <mxGeometry relative="1" as="geometry">
            <Array as="points">
              <mxPoint x="420" y="80" />
              <mxPoint x="880" y="80" />
            </Array>
          </mxGeometry>
        </mxCell>
        <mxCell id="_umKn0ACVoSn4Z4wN4rh-2" value="系统架构" style="rounded=0;whiteSpace=wrap;html=1;" vertex="1" parent="1">
          <mxGeometry x="360" y="30" width="120" height="40" as="geometry" />
        </mxCell>
        <mxCell id="_umKn0ACVoSn4Z4wN4rh-19" value="" style="edgeStyle=orthogonalEdgeStyle;rounded=0;orthogonalLoop=1;jettySize=auto;html=1;" edge="1" parent="1" source="_umKn0ACVoSn4Z4wN4rh-5" target="_umKn0ACVoSn4Z4wN4rh-18">
          <mxGeometry relative="1" as="geometry" />
        </mxCell>
        <mxCell id="_umKn0ACVoSn4Z4wN4rh-5" value="文件选择输入流程" style="rounded=0;whiteSpace=wrap;html=1;" vertex="1" parent="1">
          <mxGeometry x="20" y="110" width="120" height="40" as="geometry" />
        </mxCell>
        <mxCell id="_umKn0ACVoSn4Z4wN4rh-25" value="" style="edgeStyle=orthogonalEdgeStyle;rounded=0;orthogonalLoop=1;jettySize=auto;html=1;" edge="1" parent="1" source="_umKn0ACVoSn4Z4wN4rh-7" target="_umKn0ACVoSn4Z4wN4rh-24">
          <mxGeometry relative="1" as="geometry" />
        </mxCell>
        <mxCell id="_umKn0ACVoSn4Z4wN4rh-7" value="词法分析流程" style="rounded=0;whiteSpace=wrap;html=1;" vertex="1" parent="1">
          <mxGeometry x="180" y="110" width="120" height="40" as="geometry" />
        </mxCell>
        <mxCell id="_umKn0ACVoSn4Z4wN4rh-37" style="edgeStyle=orthogonalEdgeStyle;rounded=0;orthogonalLoop=1;jettySize=auto;html=1;exitX=0.5;exitY=1;exitDx=0;exitDy=0;entryX=0.5;entryY=0;entryDx=0;entryDy=0;" edge="1" parent="1" source="_umKn0ACVoSn4Z4wN4rh-10" target="_umKn0ACVoSn4Z4wN4rh-36">
          <mxGeometry relative="1" as="geometry" />
        </mxCell>
        <mxCell id="_umKn0ACVoSn4Z4wN4rh-10" value="语法分析流程" style="rounded=0;whiteSpace=wrap;html=1;" vertex="1" parent="1">
          <mxGeometry x="340" y="110" width="120" height="40" as="geometry" />
        </mxCell>
        <mxCell id="_umKn0ACVoSn4Z4wN4rh-51" style="edgeStyle=orthogonalEdgeStyle;rounded=0;orthogonalLoop=1;jettySize=auto;html=1;exitX=0.5;exitY=1;exitDx=0;exitDy=0;" edge="1" parent="1" source="_umKn0ACVoSn4Z4wN4rh-12" target="_umKn0ACVoSn4Z4wN4rh-47">
          <mxGeometry relative="1" as="geometry" />
        </mxCell>
        <mxCell id="_umKn0ACVoSn4Z4wN4rh-12" value="缩进编排流程" style="rounded=0;whiteSpace=wrap;html=1;" vertex="1" parent="1">
          <mxGeometry x="500" y="110" width="120" height="40" as="geometry" />
        </mxCell>
        <mxCell id="_umKn0ACVoSn4Z4wN4rh-59" value="" style="edgeStyle=orthogonalEdgeStyle;rounded=0;orthogonalLoop=1;jettySize=auto;html=1;" edge="1" parent="1" source="_umKn0ACVoSn4Z4wN4rh-14" target="_umKn0ACVoSn4Z4wN4rh-58">
          <mxGeometry relative="1" as="geometry" />
        </mxCell>
        <mxCell id="_umKn0ACVoSn4Z4wN4rh-14" value="文件选择流程" style="rounded=0;whiteSpace=wrap;html=1;" vertex="1" parent="1">
          <mxGeometry x="660" y="110" width="120" height="40" as="geometry" />
        </mxCell>
        <mxCell id="_umKn0ACVoSn4Z4wN4rh-57" value="" style="edgeStyle=orthogonalEdgeStyle;rounded=0;orthogonalLoop=1;jettySize=auto;html=1;" edge="1" parent="1" source="_umKn0ACVoSn4Z4wN4rh-16" target="_umKn0ACVoSn4Z4wN4rh-56">
          <mxGeometry relative="1" as="geometry" />
        </mxCell>
        <mxCell id="_umKn0ACVoSn4Z4wN4rh-16" value="退出系统流程" style="rounded=0;whiteSpace=wrap;html=1;" vertex="1" parent="1">
          <mxGeometry x="820" y="110" width="120" height="40" as="geometry" />
        </mxCell>
        <mxCell id="_umKn0ACVoSn4Z4wN4rh-21" value="" style="edgeStyle=orthogonalEdgeStyle;rounded=0;orthogonalLoop=1;jettySize=auto;html=1;" edge="1" parent="1" source="_umKn0ACVoSn4Z4wN4rh-18" target="_umKn0ACVoSn4Z4wN4rh-20">
          <mxGeometry relative="1" as="geometry" />
        </mxCell>
        <mxCell id="_umKn0ACVoSn4Z4wN4rh-18" value="输入待处理文件名称" style="rounded=0;whiteSpace=wrap;html=1;" vertex="1" parent="1">
          <mxGeometry x="20" y="190" width="120" height="40" as="geometry" />
        </mxCell>
        <mxCell id="_umKn0ACVoSn4Z4wN4rh-23" value="" style="edgeStyle=orthogonalEdgeStyle;rounded=0;orthogonalLoop=1;jettySize=auto;html=1;" edge="1" parent="1" source="_umKn0ACVoSn4Z4wN4rh-20" target="_umKn0ACVoSn4Z4wN4rh-22">
          <mxGeometry relative="1" as="geometry" />
        </mxCell>
        <mxCell id="_umKn0ACVoSn4Z4wN4rh-20" value="输入操作序号" style="rounded=0;whiteSpace=wrap;html=1;" vertex="1" parent="1">
          <mxGeometry x="20" y="270" width="120" height="40" as="geometry" />
        </mxCell>
        <mxCell id="_umKn0ACVoSn4Z4wN4rh-22" value="进入对应流程" style="rounded=0;whiteSpace=wrap;html=1;" vertex="1" parent="1">
          <mxGeometry x="20" y="350" width="120" height="40" as="geometry" />
        </mxCell>
        <mxCell id="_umKn0ACVoSn4Z4wN4rh-27" value="" style="edgeStyle=orthogonalEdgeStyle;rounded=0;orthogonalLoop=1;jettySize=auto;html=1;" edge="1" parent="1" source="_umKn0ACVoSn4Z4wN4rh-24" target="_umKn0ACVoSn4Z4wN4rh-26">
          <mxGeometry relative="1" as="geometry" />
        </mxCell>
        <mxCell id="_umKn0ACVoSn4Z4wN4rh-24" value="line_num初始为1" style="rounded=0;whiteSpace=wrap;html=1;" vertex="1" parent="1">
          <mxGeometry x="180" y="190" width="120" height="40" as="geometry" />
        </mxCell>
        <mxCell id="_umKn0ACVoSn4Z4wN4rh-29" value="" style="edgeStyle=orthogonalEdgeStyle;rounded=0;orthogonalLoop=1;jettySize=auto;html=1;" edge="1" parent="1" source="_umKn0ACVoSn4Z4wN4rh-26" target="_umKn0ACVoSn4Z4wN4rh-28">
          <mxGeometry relative="1" as="geometry" />
        </mxCell>
        <mxCell id="_umKn0ACVoSn4Z4wN4rh-26" value="预编译生成中间文件" style="rounded=0;whiteSpace=wrap;html=1;" vertex="1" parent="1">
          <mxGeometry x="180" y="270" width="120" height="40" as="geometry" />
        </mxCell>
        <mxCell id="_umKn0ACVoSn4Z4wN4rh-31" value="" style="edgeStyle=orthogonalEdgeStyle;rounded=0;orthogonalLoop=1;jettySize=auto;html=1;" edge="1" parent="1" source="_umKn0ACVoSn4Z4wN4rh-28" target="_umKn0ACVoSn4Z4wN4rh-30">
          <mxGeometry relative="1" as="geometry" />
        </mxCell>
        <mxCell id="_umKn0ACVoSn4Z4wN4rh-28" value="line_num置为1" style="rounded=0;whiteSpace=wrap;html=1;" vertex="1" parent="1">
          <mxGeometry x="180" y="350" width="120" height="40" as="geometry" />
        </mxCell>
        <mxCell id="_umKn0ACVoSn4Z4wN4rh-33" value="" style="edgeStyle=orthogonalEdgeStyle;rounded=0;orthogonalLoop=1;jettySize=auto;html=1;" edge="1" parent="1" source="_umKn0ACVoSn4Z4wN4rh-30" target="_umKn0ACVoSn4Z4wN4rh-32">
          <mxGeometry relative="1" as="geometry" />
        </mxCell>
        <mxCell id="_umKn0ACVoSn4Z4wN4rh-30" value="GetToken识别各单词" style="rounded=0;whiteSpace=wrap;html=1;" vertex="1" parent="1">
          <mxGeometry x="180" y="430" width="120" height="40" as="geometry" />
        </mxCell>
        <mxCell id="_umKn0ACVoSn4Z4wN4rh-35" value="" style="edgeStyle=orthogonalEdgeStyle;rounded=0;orthogonalLoop=1;jettySize=auto;html=1;" edge="1" parent="1" source="_umKn0ACVoSn4Z4wN4rh-32" target="_umKn0ACVoSn4Z4wN4rh-34">
          <mxGeometry relative="1" as="geometry" />
        </mxCell>
        <mxCell id="_umKn0ACVoSn4Z4wN4rh-32" value="识别错误存至数组，其他单词输出类型与值" style="rounded=0;whiteSpace=wrap;html=1;" vertex="1" parent="1">
          <mxGeometry x="175" y="510" width="130" height="40" as="geometry" />
        </mxCell>
        <mxCell id="_umKn0ACVoSn4Z4wN4rh-34" value="按顺序输出错误" style="rounded=0;whiteSpace=wrap;html=1;" vertex="1" parent="1">
          <mxGeometry x="180" y="580" width="130" height="40" as="geometry" />
        </mxCell>
        <mxCell id="_umKn0ACVoSn4Z4wN4rh-39" style="edgeStyle=orthogonalEdgeStyle;rounded=0;orthogonalLoop=1;jettySize=auto;html=1;exitX=0.5;exitY=1;exitDx=0;exitDy=0;entryX=0.5;entryY=0;entryDx=0;entryDy=0;" edge="1" parent="1" source="_umKn0ACVoSn4Z4wN4rh-36" target="_umKn0ACVoSn4Z4wN4rh-38">
          <mxGeometry relative="1" as="geometry" />
        </mxCell>
        <mxCell id="_umKn0ACVoSn4Z4wN4rh-36" value="line_num初始为1" style="rounded=0;whiteSpace=wrap;html=1;" vertex="1" parent="1">
          <mxGeometry x="340" y="190" width="120" height="40" as="geometry" />
        </mxCell>
        <mxCell id="_umKn0ACVoSn4Z4wN4rh-41" style="edgeStyle=orthogonalEdgeStyle;rounded=0;orthogonalLoop=1;jettySize=auto;html=1;exitX=0.5;exitY=1;exitDx=0;exitDy=0;entryX=0.5;entryY=0;entryDx=0;entryDy=0;" edge="1" parent="1" source="_umKn0ACVoSn4Z4wN4rh-38" target="_umKn0ACVoSn4Z4wN4rh-40">
          <mxGeometry relative="1" as="geometry" />
        </mxCell>
        <mxCell id="_umKn0ACVoSn4Z4wN4rh-38" value="预编译生成中间文件" style="rounded=0;whiteSpace=wrap;html=1;" vertex="1" parent="1">
          <mxGeometry x="340" y="270" width="120" height="40" as="geometry" />
        </mxCell>
        <mxCell id="_umKn0ACVoSn4Z4wN4rh-43" value="" style="edgeStyle=orthogonalEdgeStyle;rounded=0;orthogonalLoop=1;jettySize=auto;html=1;" edge="1" parent="1" source="_umKn0ACVoSn4Z4wN4rh-40" target="_umKn0ACVoSn4Z4wN4rh-42">
          <mxGeometry relative="1" as="geometry" />
        </mxCell>
        <mxCell id="_umKn0ACVoSn4Z4wN4rh-40" value="line_num置为1" style="rounded=0;whiteSpace=wrap;html=1;" vertex="1" parent="1">
          <mxGeometry x="340" y="350" width="120" height="40" as="geometry" />
        </mxCell>
        <mxCell id="_umKn0ACVoSn4Z4wN4rh-45" value="" style="edgeStyle=orthogonalEdgeStyle;rounded=0;orthogonalLoop=1;jettySize=auto;html=1;" edge="1" parent="1" source="_umKn0ACVoSn4Z4wN4rh-42" target="_umKn0ACVoSn4Z4wN4rh-44">
          <mxGeometry relative="1" as="geometry" />
        </mxCell>
        <mxCell id="_umKn0ACVoSn4Z4wN4rh-42" value="Program函数构建抽象语法树" style="rounded=0;whiteSpace=wrap;html=1;" vertex="1" parent="1">
          <mxGeometry x="340" y="430" width="120" height="40" as="geometry" />
        </mxCell>
        <mxCell id="_umKn0ACVoSn4Z4wN4rh-44" value="先序遍历抽象语法树" style="rounded=0;whiteSpace=wrap;html=1;" vertex="1" parent="1">
          <mxGeometry x="340" y="510" width="120" height="40" as="geometry" />
        </mxCell>
        <mxCell id="_umKn0ACVoSn4Z4wN4rh-46" style="edgeStyle=orthogonalEdgeStyle;rounded=0;orthogonalLoop=1;jettySize=auto;html=1;exitX=0.5;exitY=1;exitDx=0;exitDy=0;entryX=0.5;entryY=0;entryDx=0;entryDy=0;" edge="1" parent="1" source="_umKn0ACVoSn4Z4wN4rh-47" target="_umKn0ACVoSn4Z4wN4rh-49">
          <mxGeometry relative="1" as="geometry" />
        </mxCell>
        <mxCell id="_umKn0ACVoSn4Z4wN4rh-47" value="line_num初始为1" style="rounded=0;whiteSpace=wrap;html=1;" vertex="1" parent="1">
          <mxGeometry x="500" y="190" width="120" height="40" as="geometry" />
        </mxCell>
        <mxCell id="_umKn0ACVoSn4Z4wN4rh-48" style="edgeStyle=orthogonalEdgeStyle;rounded=0;orthogonalLoop=1;jettySize=auto;html=1;exitX=0.5;exitY=1;exitDx=0;exitDy=0;entryX=0.5;entryY=0;entryDx=0;entryDy=0;" edge="1" parent="1" source="_umKn0ACVoSn4Z4wN4rh-49" target="_umKn0ACVoSn4Z4wN4rh-50">
          <mxGeometry relative="1" as="geometry" />
        </mxCell>
        <mxCell id="_umKn0ACVoSn4Z4wN4rh-49" value="预编译生成中间文件" style="rounded=0;whiteSpace=wrap;html=1;" vertex="1" parent="1">
          <mxGeometry x="500" y="270" width="120" height="40" as="geometry" />
        </mxCell>
        <mxCell id="_umKn0ACVoSn4Z4wN4rh-53" style="edgeStyle=orthogonalEdgeStyle;rounded=0;orthogonalLoop=1;jettySize=auto;html=1;exitX=0.5;exitY=1;exitDx=0;exitDy=0;entryX=0.5;entryY=0;entryDx=0;entryDy=0;" edge="1" parent="1" source="_umKn0ACVoSn4Z4wN4rh-50" target="_umKn0ACVoSn4Z4wN4rh-52">
          <mxGeometry relative="1" as="geometry" />
        </mxCell>
        <mxCell id="_umKn0ACVoSn4Z4wN4rh-50" value="line_num置为1" style="rounded=0;whiteSpace=wrap;html=1;" vertex="1" parent="1">
          <mxGeometry x="500" y="350" width="120" height="40" as="geometry" />
        </mxCell>
        <mxCell id="_umKn0ACVoSn4Z4wN4rh-55" value="" style="edgeStyle=orthogonalEdgeStyle;rounded=0;orthogonalLoop=1;jettySize=auto;html=1;" edge="1" parent="1" source="_umKn0ACVoSn4Z4wN4rh-52" target="_umKn0ACVoSn4Z4wN4rh-54">
          <mxGeometry relative="1" as="geometry" />
        </mxCell>
        <mxCell id="_umKn0ACVoSn4Z4wN4rh-52" value="Program函数构建缩进处理队列" style="rounded=0;whiteSpace=wrap;html=1;" vertex="1" parent="1">
          <mxGeometry x="500" y="430" width="120" height="40" as="geometry" />
        </mxCell>
        <mxCell id="_umKn0ACVoSn4Z4wN4rh-54" value="缩进编排函数生成格式化文件" style="rounded=0;whiteSpace=wrap;html=1;" vertex="1" parent="1">
          <mxGeometry x="500" y="510" width="120" height="40" as="geometry" />
        </mxCell>
        <mxCell id="_umKn0ACVoSn4Z4wN4rh-56" value="return 0；" style="rounded=0;whiteSpace=wrap;html=1;" vertex="1" parent="1">
          <mxGeometry x="820" y="190" width="120" height="40" as="geometry" />
        </mxCell>
        <mxCell id="_umKn0ACVoSn4Z4wN4rh-58" value="文件选择输入" style="rounded=0;whiteSpace=wrap;html=1;" vertex="1" parent="1">
          <mxGeometry x="660" y="190" width="120" height="40" as="geometry" />
        </mxCell>
      </root>
    </mxGraphModel>
  </diagram>
</mxfile>
